<svg width="69" height="69" viewBox="0 0 69 69" fill="none" xmlns="http://www.w3.org/2000/svg">
<path d="M49.0625 43.25H46.0013L44.9163 42.2038C48.7138 37.7863 51 32.0513 51 25.8125C51 11.9013 39.7238 0.625 25.8125 0.625C11.9013 0.625 0.625 11.9013 0.625 25.8125C0.625 39.7238 11.9013 51 25.8125 51C32.0513 51 37.7863 48.7138 42.2038 44.9163L43.25 46.0013V49.0625L62.625 68.3988L68.3988 62.625L49.0625 43.25ZM25.8125 43.25C16.1638 43.25 8.375 35.4613 8.375 25.8125C8.375 16.1638 16.1638 8.375 25.8125 8.375C35.4613 8.375 43.25 16.1638 43.25 25.8125C43.25 35.4613 35.4613 43.25 25.8125 43.25Z" fill="#00D9FF"/>
</svg>
