<svg width="19" height="18" viewBox="0 0 19 18" fill="none" xmlns="http://www.w3.org/2000/svg">
<path d="M13.0332 11H12.2454L11.9662 10.73C12.9435 9.59 13.5318 8.11 13.5318 6.5C13.5318 2.91 10.6299 0 7.04985 0C3.46979 0 0.567856 2.91 0.567856 6.5C0.567856 10.09 3.46979 13 7.04985 13C8.65539 13 10.1313 12.41 11.2681 11.43L11.5374 11.71V12.5L16.5235 17.49L18.0094 16L13.0332 11ZM7.04985 11C4.56675 11 2.56232 8.99 2.56232 6.5C2.56232 4.01 4.56675 2 7.04985 2C9.53295 2 11.5374 4.01 11.5374 6.5C11.5374 8.99 9.53295 11 7.04985 11Z" fill="#008FA8"/>
</svg>
