<svg width="36" height="47" viewBox="0 0 36 47" fill="none" xmlns="http://www.w3.org/2000/svg">
<path d="M0.64 43.48C9.55733 37.6347 16.576 32.3867 21.696 27.736C26.816 23.0427 29.76 18.4987 30.528 14.104C30.6987 12.9947 30.784 12.1627 30.784 11.608C30.784 9.47466 30.144 7.768 28.864 6.488C27.6267 5.208 25.6 4.568 22.784 4.568C19.5413 4.568 16.8533 5.592 14.72 7.64C12.5867 9.64533 11.136 12.312 10.368 15.64H6.016C7.08267 10.904 9.17333 7.23466 12.288 4.632C15.4453 2.02933 19.1787 0.727997 23.488 0.727997C27.1147 0.727997 29.9733 1.624 32.064 3.416C34.1973 5.16533 35.264 7.68266 35.264 10.968C35.264 12.0347 35.1787 13.016 35.008 13.912C34.112 18.9893 31.104 23.9387 25.984 28.76C20.864 33.5387 14.7627 38.2533 7.68 42.904H31.296L30.656 46.68H0.064L0.64 43.48Z" fill="black"/>
</svg>
