<svg width="12" height="16" viewBox="0 0 12 16" fill="none" xmlns="http://www.w3.org/2000/svg">
<path d="M5.99984 4.00008V6.00008L8.6665 3.33341L5.99984 0.666748V2.66675C3.05317 2.66675 0.666504 5.05341 0.666504 8.00008C0.666504 9.04675 0.97317 10.0201 1.49317 10.8401L2.4665 9.86675C2.1665 9.31341 1.99984 8.67341 1.99984 8.00008C1.99984 5.79341 3.79317 4.00008 5.99984 4.00008ZM10.5065 5.16008L9.53317 6.13341C9.8265 6.69341 9.99984 7.32675 9.99984 8.00008C9.99984 10.2067 8.2065 12.0001 5.99984 12.0001V10.0001L3.33317 12.6667L5.99984 15.3334V13.3334C8.9465 13.3334 11.3332 10.9467 11.3332 8.00008C11.3332 6.95341 11.0265 5.98008 10.5065 5.16008Z" fill="#333333"/>
</svg>
