<svg width="13" height="13" viewBox="0 0 13 13" fill="none" xmlns="http://www.w3.org/2000/svg">
<path d="M4.87498 7.04165C6.0716 7.04165 7.04165 6.0716 7.04165 4.87498C7.04165 3.67836 6.0716 2.70831 4.87498 2.70831C3.67836 2.70831 2.70831 3.67836 2.70831 4.87498C2.70831 6.0716 3.67836 7.04165 4.87498 7.04165Z" fill="black"/>
<path d="M4.87502 8.12498C3.42877 8.12498 0.541687 8.85081 0.541687 10.2916V11.375H9.20835V10.2916C9.20835 8.85081 6.32127 8.12498 4.87502 8.12498ZM9.07835 2.90331L8.16835 3.81873C8.62335 4.4579 8.62335 5.28665 8.16835 5.92581L9.07835 6.84123C10.1725 5.74706 10.1725 4.09498 9.07835 2.90331ZM10.8713 1.08331L9.98835 1.96623C11.4888 3.60206 11.4888 6.06123 9.98835 7.78373L10.8713 8.66665C12.9838 6.55956 12.9892 3.27706 10.8713 1.08331Z" fill="black"/>
</svg>
