<svg width="20" height="18" viewBox="0 0 20 18" fill="none" xmlns="http://www.w3.org/2000/svg">
<path d="M14.5 0.555725C12.76 0.555725 11.09 1.29973 10 2.47544C8.91 1.29973 7.24 0.555725 5.5 0.555725C2.42 0.555725 0 2.77855 0 5.60761C0 9.07963 3.4 11.9087 8.55 16.2074L10 17.4106L11.45 16.1982C16.6 11.9087 20 9.07963 20 5.60761C20 2.77855 17.58 0.555725 14.5 0.555725ZM10.1 14.8388L10 14.9306L9.9 14.8388C5.14 10.8799 2 8.26214 2 5.60761C2 3.77056 3.5 2.39277 5.5 2.39277C7.04 2.39277 8.54 3.30211 9.07 4.56049H10.94C11.46 3.30211 12.96 2.39277 14.5 2.39277C16.5 2.39277 18 3.77056 18 5.60761C18 8.26214 14.86 10.8799 10.1 14.8388Z" fill="black"/>
</svg>
