<svg width="11" height="12" viewBox="0 0 11 12" fill="none" xmlns="http://www.w3.org/2000/svg">
<path d="M9.77778 1.2H7.22333C6.96667 0.504 6.29444 0 5.5 0C4.70556 0 4.03333 0.504 3.77667 1.2H1.22222C0.55 1.2 0 1.74 0 2.4V10.8C0 11.46 0.55 12 1.22222 12H9.77778C10.45 12 11 11.46 11 10.8V2.4C11 1.74 10.45 1.2 9.77778 1.2ZM5.5 1.2C5.83611 1.2 6.11111 1.47 6.11111 1.8C6.11111 2.13 5.83611 2.4 5.5 2.4C5.16389 2.4 4.88889 2.13 4.88889 1.8C4.88889 1.47 5.16389 1.2 5.5 1.2ZM6.72222 9.6H2.44444V8.4H6.72222V9.6ZM8.55556 7.2H2.44444V6H8.55556V7.2ZM8.55556 4.8H2.44444V3.6H8.55556V4.8Z" fill="black"/>
</svg>
