<svg width="20" height="18" viewBox="0 0 20 18" fill="none" xmlns="http://www.w3.org/2000/svg">
<path d="M14.5 0.555664C12.76 0.555664 11.09 1.29967 10 2.47538C8.91 1.29967 7.24 0.555664 5.5 0.555664C2.42 0.555664 0 2.77849 0 5.60754C0 9.07957 3.4 11.9086 8.55 16.2073L10 17.4106L11.45 16.1981C16.6 11.9086 20 9.07957 20 5.60754C20 2.77849 17.58 0.555664 14.5 0.555664ZM10.1 14.8387L10 14.9306L9.9 14.8387C5.14 10.8799 2 8.26208 2 5.60754C2 3.7705 3.5 2.39271 5.5 2.39271C7.04 2.39271 8.54 3.30205 9.07 4.56043H10.94C11.46 3.30205 12.96 2.39271 14.5 2.39271C16.5 2.39271 18 3.7705 18 5.60754C18 8.26208 14.86 10.8799 10.1 14.8387Z" fill="black"/>
</svg>
